<svg width="90" height="90" viewBox="0 0 90 90" fill="none" xmlns="http://www.w3.org/2000/svg">
<path d="M0.669826 9.99963C0.716751 4.47698 5.23156 0.0585493 10.7539 0.130792L80.0009 1.03667C85.5233 1.10891 89.962 5.64447 89.915 11.1671L89.3302 80.0004C89.2833 85.523 84.7684 89.9414 79.2461 89.8692L9.99913 88.9633C4.47675 88.8911 0.0380357 84.3555 0.0849608 78.8329L0.669826 9.99963Z" fill="black"/>
<path d="M31.96 66.096C29.176 66.096 27.672 65.648 27.448 64.752L25.864 58.56H18.232L16.84 64.512C16.648 65.504 15.112 66 12.232 66C10.696 66 9.56 65.92 8.824 65.76C8.088 65.568 7.72 65.424 7.72 65.328L16.216 32.832C16.216 32.576 18.408 32.448 22.792 32.448C27.176 32.448 29.368 32.576 29.368 32.832L37.672 65.376C37.672 65.6 36.936 65.776 35.464 65.904C33.992 66.032 32.824 66.096 31.96 66.096ZM19.432 52.464H24.472L22.312 42.528H22.024L19.432 52.464ZM74.4531 66.048C71.6051 66.048 70.1811 65.728 70.1811 65.088L69.1731 45.84L63.3171 65.328C63.1891 65.712 62.1011 65.904 60.0531 65.904C58.0051 65.904 56.9491 65.728 56.8851 65.376L50.8371 45.648L50.1651 64.8C50.1331 65.28 49.5251 65.616 48.3411 65.808C47.1571 65.968 46.1651 66.048 45.3651 66.048C44.5971 66.048 43.8451 66 43.1091 65.904C41.5731 65.68 40.8211 65.28 40.8531 64.704L41.9571 33.504C41.9571 32.736 43.9091 32.352 47.8131 32.352C48.9651 32.352 50.3731 32.448 52.0371 32.64C53.7011 32.8 54.6291 33.136 54.8211 33.648L60.1971 48.768L64.9011 33.6C65.1891 32.768 67.3971 32.352 71.5251 32.352C72.7091 32.352 74.1171 32.448 75.7491 32.64C77.4131 32.8 78.2451 33.104 78.2451 33.552L79.6371 65.04C79.6371 65.392 79.0131 65.648 77.7651 65.808C76.5171 65.968 75.4131 66.048 74.4531 66.048Z" fill="white"/>
</svg>
